<svg xmlns="http://www.w3.org/2000/svg" width="360" height="360" style="shape-rendering:geometricPrecision;text-rendering:geometricPrecision;image-rendering:optimizeQuality;fill-rule:evenodd;clip-rule:evenodd"><path fill="#d2d2d2" d="M-.5-.5h360v360h-38c1.637-48.183-15.363-88.016-51-119.5a275.485 275.485 0 0 0-47-31c36.303-24.131 49.803-57.631 40.5-100.5-14.285-40.617-42.952-61.617-86-63-36.436 1.383-62.77 18.383-79 51-16.179 45.992-4.679 83.325 34.5 112-22.672 13.167-43.172 29.167-61.5 48-20.85 25.133-32.183 54.133-34 87a128.43 128.43 0 0 0-.5 16h-38V-.5Z" style="opacity:1"/><path fill="#fefefe" d="M321.5 359.5h-284c-.166-5.344 0-10.677.5-16 1.817-32.867 13.15-61.867 34-87 18.328-18.833 38.828-34.833 61.5-48-39.179-28.675-50.679-66.008-34.5-112 16.23-32.617 42.564-49.617 79-51 43.048 1.383 71.715 22.383 86 63 9.303 42.869-4.197 76.369-40.5 100.5a275.485 275.485 0 0 1 47 31c35.637 31.484 52.637 71.317 51 119.5Z" style="opacity:1"/></svg>